<?xml version="1.0" encoding="utf-8"?>
<!-- Generator: Adobe Illustrator 15.1.0, SVG Export Plug-In . SVG Version: 6.00 Build 0)  -->
<!DOCTYPE svg PUBLIC "-//W3C//DTD SVG 1.1//EN" "http://www.w3.org/Graphics/SVG/1.1/DTD/svg11.dtd">
<svg version="1.1" id="Layer_1" xmlns="http://www.w3.org/2000/svg" xmlns:xlink="http://www.w3.org/1999/xlink" x="0px" y="0px"
	 width="240px" height="35px" viewBox="0 0 240 35" enable-background="new 0 0 240 35" xml:space="preserve">
<g>
	<path fill="none" stroke="#FFFFFF" stroke-miterlimit="10" d="M134.264-10.427"/>
</g>
<g>
	<g>
		<path stroke="#FFFFFF" stroke-miterlimit="10" d="M22.055,11.853c0.159-1.216-0.104-2.589-0.999-3.38
			c-0.89-0.802-2.221-1.04-3.507-1.024c-2.627,0.105-5.292,0.7-7.654,1.879c-2.37,1.169-4.406,2.978-5.842,5.197
			c-0.717,1.109-1.303,2.306-1.745,3.558c-0.462,1.258-0.716,2.526-0.742,3.847c-0.058,2.606,0.922,5.254,2.766,7.092
			c0.458,0.453,0.972,0.854,1.529,1.146c0.268,0.144,0.575,0.252,0.898,0.381c0.311,0.111,0.615,0.222,0.933,0.313
			c1.259,0.381,2.569,0.521,3.864,0.347c1.296-0.176,2.564-0.597,3.803-1.104c1.244-0.506,2.465-1.076,3.666-1.688
			c2.396-1.227,4.733-2.604,6.952-4.113l0.008-0.006c0.159-0.107,0.375-0.066,0.484,0.092c0.108,0.158,0.067,0.375-0.091,0.483
			c-2.258,1.547-4.599,2.935-7.025,4.187c-1.214,0.621-2.451,1.203-3.716,1.723c-1.264,0.521-2.588,0.972-3.983,1.164
			c-1.396,0.197-2.841,0.043-4.175-0.358c-0.334-0.094-0.668-0.214-0.996-0.331c-0.306-0.121-0.641-0.236-0.972-0.41
			c-0.646-0.334-1.214-0.779-1.718-1.275c-2.016-2-3.068-4.844-3.017-7.649c0.016-1.394,0.305-2.817,0.776-4.104
			c0.458-1.306,1.067-2.563,1.818-3.732c1.503-2.341,3.658-4.267,6.15-5.503c2.493-1.249,5.24-1.873,8.019-1.992
			c1.38-0.016,2.948,0.2,4.089,1.274c0.559,0.524,0.927,1.23,1.095,1.95c0.173,0.729,0.162,1.45,0.014,2.186
			c-0.038,0.188-0.221,0.31-0.409,0.272c-0.18-0.036-0.3-0.205-0.276-0.385L22.055,11.853z"/>
	</g>
	<g>
		<path stroke="#FFFFFF" stroke-miterlimit="10" d="M33.667,16.423c-0.769,1.239-1.493,2.522-2.139,3.831
			c-0.614,1.301-1.278,2.682-1.378,4.031c-0.004,0.334,0.045,0.611,0.249,0.758c0.229,0.186,0.412,0.212,0.654,0.063
			c0.244-0.152,0.46-0.431,0.692-0.722c0.092-0.146,0.338-0.345,0.425-0.421c0.139-0.127,0.289-0.255,0.444-0.373
			c0.623-0.477,1.38-0.794,2.163-0.888c0.785-0.097,1.572,0.021,2.309,0.239c0.733,0.233,1.426,0.565,2.072,0.963
			c0.313,0.199,0.641,0.431,0.918,0.636c0.243,0.17,0.578,0.271,0.917,0.353c1.379,0.287,2.869,0.266,4.269,0.022
			c1.4-0.224,2.654-0.995,3.981-1.649c0.659-0.338,1.32-0.676,2.019-0.969c0.352-0.145,0.708-0.281,1.102-0.373
			c0.196-0.046,0.405-0.078,0.638-0.072c0.225,0.008,0.525,0.068,0.747,0.308l0,0l0.011,0.013c0.04,0.043,0.063,0.096,0.071,0.148
			c0.142,1.037,0.537,2.195,1.356,2.822c0.885,0.547,2.069,0.558,3.101,0.424c1.05-0.278,2.208-0.469,3.302-0.676l3.332-0.592
			l-0.035,0.01c0.338-0.115,0.741-0.117,1.057,0.135c0.304,0.258,0.385,0.625,0.426,0.939c0.08,0.652-0.025,1.268-0.047,1.901v0.001
			l-0.618-0.289c0.766-0.921,1.593-1.758,2.547-2.475c0.479-0.351,0.99-0.674,1.563-0.879c0.56-0.207,1.237-0.277,1.796,0.021
			c0.051,0.025,0.071,0.09,0.044,0.141c-0.025,0.049-0.085,0.068-0.134,0.047c-0.506-0.225-1.083-0.125-1.585,0.1
			c-0.509,0.223-0.971,0.561-1.402,0.926c-0.856,0.74-1.614,1.624-2.27,2.536c-0.112,0.155-0.328,0.19-0.484,0.079
			c-0.112-0.081-0.162-0.217-0.139-0.346l0.004-0.022l0,0c0.244-0.543,0.377-1.138,0.341-1.698c-0.02-0.277-0.113-0.545-0.285-0.684
			c-0.162-0.143-0.447-0.148-0.672-0.069l-0.008,0.002l-0.027,0.009c-1.107,0.207-2.208,0.451-3.311,0.678
			c-1.113,0.242-2.181,0.445-3.301,0.768c-1.174,0.174-2.393,0.014-3.435-0.646c-0.497-0.377-0.841-0.875-1.109-1.394
			c-0.277-0.521-0.496-1.048-0.688-1.624l0.082,0.162l0,0c-0.051-0.088-0.396-0.111-0.715-0.025
			c-0.326,0.071-0.661,0.197-0.992,0.332c-0.663,0.273-1.318,0.604-1.975,0.936c-1.307,0.634-2.627,1.445-4.171,1.693
			c-1.502,0.248-3.018,0.266-4.528-0.049c-0.375-0.09-0.765-0.195-1.133-0.443c-0.316-0.23-0.593-0.424-0.901-0.621
			c-0.603-0.387-1.24-0.719-1.909-0.942c-1.331-0.473-2.843-0.313-3.933,0.56c-0.138,0.104-0.268,0.219-0.4,0.342
			c-0.187,0.17-0.24,0.191-0.357,0.355c-0.226,0.281-0.456,0.611-0.836,0.862c-0.19,0.121-0.447,0.22-0.717,0.19
			c-0.268-0.026-0.493-0.153-0.666-0.299c-0.411-0.313-0.488-0.86-0.476-1.244c0.029-0.816,0.273-1.537,0.524-2.248
			c0.261-0.707,0.564-1.389,0.887-2.062c0.651-1.341,1.368-2.636,2.145-3.909c0.1-0.165,0.314-0.216,0.479-0.116
			c0.164,0.1,0.216,0.314,0.116,0.479c0,0,0,0,0,0.001L33.667,16.423z"/>
	</g>
	<path fill="none" stroke="#FFFFFF" stroke-width="0.5225" stroke-miterlimit="10" d="M76.967,23.854c0,0-0.285,4.416,0.069,4.76"/>
	<path fill="none" stroke="#FFFFFF" stroke-width="0.3231" stroke-linecap="square" stroke-miterlimit="10" d="M77.221,21.354
		c0,0,0.965-0.188,1.045-0.015"/>
	<g>
		<path stroke="#FFFFFF" stroke-miterlimit="10" d="M85.626,21.688c-0.18-0.32-0.414-0.652-0.672-0.891
			c-0.284-0.248-0.501-0.324-0.691-0.171c-0.496,0.417-0.569,1.252-0.448,2.021c0.123,0.781,0.402,1.551,0.723,2.295
			c0.322,0.74,0.704,1.481,1.246,2.086l0,0l0.016,0.027c0.093,0.16,0.039,0.365-0.122,0.459c-0.022,0.014-0.046,0.022-0.069,0.03
			c-0.396,0.122-0.783,0.228-1.187,0.312c-0.202,0.043-0.406,0.08-0.619,0.102c-0.222,0.01-0.418,0.061-0.74-0.066
			c-0.133-0.053-0.198-0.203-0.146-0.336c0.051-0.13,0.198-0.195,0.329-0.146l0.041,0.015c0.054,0.021,0.271,0.013,0.439-0.022
			c0.181-0.032,0.366-0.08,0.55-0.133c0.368-0.105,0.742-0.236,1.097-0.377l-0.175,0.518l0,0c-0.333-0.797-0.733-1.512-1.089-2.273
			c-0.349-0.76-0.65-1.551-0.815-2.396c-0.082-0.422-0.12-0.864-0.062-1.319c0.031-0.229,0.084-0.451,0.195-0.685
			c0.058-0.129,0.117-0.221,0.172-0.301c0.08-0.121,0.16-0.205,0.267-0.299c0.206-0.185,0.566-0.291,0.853-0.207
			c0.288,0.068,0.497,0.219,0.677,0.371c0.355,0.317,0.607,0.665,0.84,1.057c0.098,0.164,0.044,0.379-0.121,0.478
			c-0.165,0.099-0.379,0.044-0.478-0.121c-0.001-0.002-0.003-0.005-0.004-0.007L85.626,21.688z"/>
	</g>
	<g>
		<path stroke="#FFFFFF" stroke-miterlimit="10" d="M119.111,7.958c0.565-0.574,1.103-1.227,1.479-1.919
			c0.186-0.344,0.328-0.713,0.335-1.041c-0.005-0.35-0.091-0.512-0.444-0.792c-1.2-1.049-2.908-1.287-4.506-0.967
			c-1.611,0.298-3.187,0.943-4.682,1.668c-1.477,0.75-2.928,1.653-3.953,2.916c-0.504,0.628-0.866,1.367-0.924,2.146
			c-0.066,0.78,0.196,1.562,0.623,2.242c0.427,0.691,0.995,1.276,1.618,1.846c0.612,0.564,1.254,1.111,1.908,1.64
			c1.305,1.064,2.668,2.068,3.958,3.198c1.257,1.127,2.561,2.438,3.016,4.24l-0.02-0.06c0.471,1.222,0.614,2.508,0.387,3.79
			c-0.232,1.275-0.91,2.465-1.873,3.33c-0.975,0.877-2.167,1.386-3.354,1.75c-1.194,0.365-2.419,0.572-3.647,0.691
			c-1.23,0.111-2.46,0.154-3.711,0.045c-0.322-0.039-0.612-0.057-0.999-0.188c-0.264-0.105-0.526-0.165-0.835-0.256
			c-0.594-0.172-1.21-0.379-1.766-0.707c-1.12-0.664-1.936-1.715-2.525-2.811c-0.567-1.127-0.876-2.346-1.077-3.57
			c-0.031-0.189,0.098-0.369,0.288-0.399c0.19-0.03,0.369,0.099,0.4,0.287c0.001,0.01,0.003,0.024,0.004,0.032
			c0.09,1.179,0.328,2.363,0.865,3.404c0.265,0.52,0.585,1.016,1.003,1.414c0.417,0.402,0.911,0.697,1.412,0.963
			c0.507,0.26,1.041,0.465,1.613,0.619c0.273,0.079,0.604,0.157,0.903,0.276c0.189,0.065,0.51,0.106,0.788,0.134
			c1.167,0.1,2.373,0.057,3.556-0.057c1.185-0.12,2.362-0.325,3.493-0.656c1.124-0.336,2.221-0.809,3.063-1.559
			c0.845-0.752,1.439-1.776,1.65-2.889c0.218-1.104,0.092-2.322-0.297-3.365l-0.016-0.041l-0.004-0.019
			c-0.36-1.541-1.535-2.808-2.754-3.918c-1.24-1.119-2.597-2.134-3.904-3.22c-0.656-0.542-1.298-1.098-1.924-1.686
			c-0.617-0.575-1.237-1.219-1.693-1.976c-0.46-0.75-0.763-1.651-0.697-2.57c0.063-0.919,0.481-1.768,1.027-2.456
			c1.113-1.384,2.612-2.313,4.127-3.1c1.538-0.753,3.115-1.435,4.833-1.773c0.855-0.163,1.755-0.223,2.644-0.062
			c0.889,0.158,1.735,0.55,2.438,1.132c0.146,0.125,0.371,0.295,0.514,0.552c0.142,0.249,0.191,0.536,0.184,0.794
			c-0.021,0.523-0.214,0.959-0.424,1.356c-0.439,0.792-0.995,1.455-1.615,2.083c-0.135,0.137-0.355,0.138-0.492,0.003
			c-0.137-0.135-0.138-0.355-0.003-0.492L119.111,7.958z"/>
	</g>
	<g>
		<path stroke="#FFFFFF" stroke-miterlimit="10" d="M121.809,23.527c-0.324,0.75-0.602,1.545-0.808,2.343
			c-0.203,0.794-0.347,1.623-0.246,2.392c0.054,0.377,0.181,0.729,0.399,0.965c0.223,0.235,0.496,0.307,0.857,0.265
			c0.717-0.109,1.451-0.544,2.116-1.007c0.671-0.473,1.306-1.012,1.909-1.582c0.301-0.285,0.595-0.58,0.873-0.883
			c0.14-0.151,0.273-0.307,0.396-0.459c0.073-0.094,0.09-0.117,0.176-0.244c0.033-0.026-0.033-0.01,0.17-0.166
			c0.053-0.024,0.053-0.041,0.164-0.059c0.098-0.013,0.215,0.018,0.287,0.065c0.084,0.059,0.127,0.122,0.166,0.196
			c0.051,0.131,0.057,0.201,0.066,0.267c0.075,0.918,0.051,1.715,0.223,2.489c0.076,0.365,0.232,0.74,0.397,0.822
			c0.089,0.108,0.489-0.015,0.887-0.144c3.136-1.117,6.204-2.593,9.177-4.155c1.482-0.795,2.941-1.635,4.338-2.561
			c1.373-0.934,2.774-1.93,3.734-3.209l0,0c0.113-0.154,0.331-0.188,0.486-0.075c0.146,0.106,0.186,0.305,0.097,0.457l-0.004,0.006
			c-0.955,1.628-1.833,3.341-2.455,5.114c-0.299,0.887-0.536,1.806-0.54,2.703c-0.017,0.918,0.336,1.674,1.076,2.16
			c0.1,0.065,0.127,0.199,0.063,0.299c-0.051,0.076-0.14,0.109-0.224,0.094l-0.007-0.001c-0.523-0.104-1.001-0.504-1.253-0.999
			c-0.255-0.496-0.334-1.035-0.341-1.549c-0.004-1.03,0.246-2.002,0.55-2.934c0.625-1.867,1.507-3.602,2.541-5.26l0.579,0.387l0,0
			c-1.08,1.444-2.499,2.437-3.899,3.408c-1.42,0.952-2.892,1.811-4.386,2.62c-3.005,1.601-6.045,3.086-9.277,4.261
			c-0.213,0.068-0.406,0.133-0.658,0.19c-0.215,0.06-0.619,0.071-0.899-0.114c-0.569-0.388-0.664-0.915-0.778-1.35
			c-0.188-0.885-0.15-1.795-0.207-2.561c-0.004-0.039-0.018-0.074-0.002-0.043c0.023,0.055,0.053,0.092,0.117,0.135
			c0.061,0.045,0.164,0.074,0.248,0.059c0.1-0.023,0.09-0.023,0.13-0.043c0.157-0.131,0.065-0.063,0.067-0.049
			c-0.03,0.05-0.137,0.199-0.198,0.269c-0.144,0.177-0.289,0.339-0.438,0.496c-0.297,0.317-0.604,0.618-0.92,0.912
			c-0.632,0.584-1.295,1.137-2.012,1.631c-0.725,0.479-1.48,0.958-2.451,1.104c-0.246,0.021-0.508,0.021-0.771-0.061
			c-0.133-0.044-0.313-0.128-0.375-0.18l-0.066-0.045l-0.017-0.012c-0.058-0.041-0.026-0.021-0.044-0.035l-0.036-0.032l-0.142-0.14
			c-0.352-0.399-0.487-0.894-0.542-1.349c-0.119-1.837,0.441-3.483,1.068-5.095c0.07-0.18,0.271-0.268,0.451-0.198
			c0.18,0.07,0.27,0.272,0.197,0.451c0,0.004-0.002,0.007-0.004,0.011L121.809,23.527z"/>
	</g>
	<g>
		<path stroke="#FFFFFF" stroke-miterlimit="10" d="M142.535,24.825c4.354,0.034,8.721-0.103,13.054-0.503
			c2.164-0.209,4.325-0.484,6.438-0.941c1.056-0.232,2.102-0.509,3.093-0.896c0.968-0.387,1.978-0.893,2.481-1.688l-0.043,0.109l0,0
			c0.058-0.313,0.006-0.697-0.162-0.848c-0.151-0.17-0.5-0.203-0.858-0.142c-0.765,0.153-1.505,0.425-2.208,0.8
			c-1.404,0.736-2.594,1.863-3.439,3.205c-0.416,0.682-0.836,1.391-0.82,2.085c-0.019,0.698,0.473,1.276,1.139,1.638
			c0.663,0.367,1.443,0.57,2.227,0.695c0.391,0.061,0.801,0.104,1.183,0.118c0.346-0.002,0.758-0.073,1.147-0.149
			c3.166-0.701,6.289-1.801,9.363-2.926c1.536-0.574,3.063-1.181,4.559-1.841c0.748-0.331,1.49-0.676,2.211-1.05
			c0.697-0.373,1.473-0.781,1.938-1.274l0.015-0.016c0.133-0.14,0.353-0.146,0.492-0.015c0.129,0.123,0.145,0.317,0.043,0.457
			l-0.002,0.002c-0.794,1.09-1.523,2.252-2.133,3.455c-0.304,0.602-0.582,1.217-0.787,1.844c-0.201,0.617-0.345,1.287-0.224,1.83
			l-0.519-0.215v-0.002c0.858-0.523,1.701-1.125,2.453-1.797c0.395-0.328,0.662-0.72,1.16-1.082c0.452-0.34,1.073-0.549,1.669-0.451
			c0.597,0.086,1.099,0.402,1.509,0.758c0.398,0.354,0.77,0.672,1.186,0.974c0.816,0.599,1.712,1.097,2.67,1.406
			c1.916,0.649,4.036,0.474,5.895-0.321c0.936-0.389,1.815-0.906,2.646-1.5c0.832-0.564,1.581-1.324,2.546-1.827
			c0.475-0.251,0.979-0.474,1.559-0.53c0.146-0.006,0.297-0.01,0.455,0.026c0.16,0.021,0.354,0.146,0.453,0.267
			c0.213,0.248,0.313,0.508,0.405,0.765c0.177,0.513,0.28,1.024,0.401,1.524c0.062,0.248,0.123,0.496,0.205,0.723
			c0.039,0.109,0.09,0.22,0.141,0.279c0.012,0.033,0.154,0.112,0.25,0.16c1.828,0.811,4.006,0.563,5.914-0.056
			c3.887-1.321,7.129-4.073,9.977-7.009l-0.023,0.029c1.037-1.477,1.996-3.032,2.813-4.644c0.406-0.807,0.779-1.629,1.082-2.472
			c0.303-0.84,0.54-1.706,0.604-2.566l0.002-0.006c0.015-0.192,0.182-0.336,0.373-0.321c0.191,0.015,0.336,0.182,0.32,0.374
			c0,0.001,0,0.004,0,0.005c-0.088,0.963-0.355,1.87-0.683,2.741c-0.328,0.872-0.724,1.71-1.149,2.528
			c-0.863,1.632-1.832,3.188-2.906,4.69l-0.025,0.03c-1.455,1.491-3.005,2.899-4.697,4.13c-1.689,1.227-3.529,2.289-5.539,2.936
			c-1.99,0.621-4.234,0.884-6.248-0.008c-0.131-0.072-0.238-0.098-0.394-0.266c-0.114-0.143-0.166-0.273-0.218-0.404
			c-0.1-0.263-0.163-0.518-0.229-0.771c-0.128-0.506-0.237-1.011-0.405-1.478c-0.082-0.229-0.187-0.455-0.316-0.602
			c-0.094-0.131-0.284-0.145-0.521-0.131c-0.455,0.048-0.924,0.251-1.355,0.49c-0.883,0.468-1.602,1.216-2.471,1.83
			c-0.855,0.613-1.777,1.145-2.76,1.549c-1.949,0.822-4.225,1.01-6.254,0.309c-1.012-0.34-1.959-0.845-2.82-1.459
			c-0.892-0.582-1.56-1.502-2.463-1.594c-0.438-0.063-0.875,0.084-1.244,0.365c-0.351,0.244-0.696,0.711-1.092,1.057
			c-0.781,0.723-1.611,1.359-2.506,1.939l-0.003,0.002l-0.012,0.008c-0.159,0.097-0.367,0.047-0.466-0.113
			c-0.021-0.033-0.033-0.07-0.041-0.107c-0.166-0.814,0.035-1.537,0.25-2.211c0.226-0.676,0.52-1.313,0.838-1.936
			c0.648-1.236,1.377-2.408,2.168-3.559l0.002-0.002l0.549,0.428c-0.678,0.701-1.415,1.035-2.152,1.447
			c-0.74,0.385-1.492,0.733-2.25,1.067c-1.515,0.668-3.051,1.277-4.597,1.856c-3.104,1.135-6.209,2.232-9.474,2.957
			c-0.418,0.078-0.818,0.158-1.299,0.162c-0.44-0.017-0.85-0.063-1.272-0.127c-0.837-0.137-1.679-0.346-2.46-0.776
			c-0.387-0.218-0.764-0.496-1.047-0.886c-0.29-0.379-0.455-0.881-0.447-1.355c-0.001-0.482,0.126-0.925,0.313-1.342
			c0.183-0.391,0.386-0.762,0.617-1.119c0.907-1.438,2.188-2.654,3.702-3.447c0.747-0.4,1.569-0.703,2.419-0.871
			c0.43-0.065,1.016-0.102,1.469,0.338c0.418,0.457,0.422,0.996,0.351,1.476l-0.001,0.005l-0.002,0.012
			c-0.008,0.036-0.021,0.069-0.041,0.098c-0.713,1.063-1.814,1.531-2.837,1.949c-1.048,0.397-2.121,0.67-3.199,0.897
			c-2.159,0.446-4.34,0.705-6.521,0.896c-4.365,0.365-8.739,0.465-13.115,0.391c-0.129-0.003-0.23-0.107-0.229-0.236
			C142.3,24.926,142.408,24.824,142.535,24.825z"/>
	</g>
	<path fill="none" stroke="#FFFFFF" stroke-width="0.6966" stroke-linecap="round" stroke-miterlimit="10" d="M227.039,11.475
		c0,0-4.984,12.613-1.934,18.955"/>
	<g>
		<path stroke="#FFFFFF" stroke-miterlimit="10" d="M239.354,9.945c-0.877,1.536-1.642,3.166-2.311,4.816
			c-0.672,1.652-1.257,3.342-1.682,5.074c-0.407,1.729-0.7,3.502-0.666,5.276c0.033,1.765,0.32,3.546,1.08,5.119
			c0.084,0.174,0.011,0.383-0.162,0.467c-0.174,0.082-0.383,0.011-0.467-0.163c-0.002-0.007-0.006-0.015-0.008-0.021
			c-0.695-1.728-0.992-3.572-0.981-5.397c0.014-1.826,0.237-3.642,0.647-5.411c0.402-1.771,0.946-3.507,1.61-5.194
			c0.676-1.685,1.437-3.324,2.335-4.917c0.096-0.167,0.309-0.227,0.475-0.132c0.168,0.094,0.228,0.307,0.133,0.475v0.001
			L239.354,9.945z"/>
	</g>
	<g>
		<path stroke="#FFFFFF" stroke-miterlimit="10" d="M199.884,27.236c-0.026,0.578,0.246,1.154,0.763,1.299
			c0.526,0.162,1.16,0.029,1.771-0.154c0.603-0.182,1.181-0.451,1.657-0.82c0.47-0.36,0.859-0.883,0.965-1.414l0.009-0.043
			c0.022-0.121,0.142-0.199,0.263-0.176c0.108,0.021,0.185,0.119,0.181,0.227c-0.029,0.799-0.489,1.427-1.038,1.879
			c-0.557,0.455-1.215,0.721-1.871,0.916c-0.641,0.176-1.364,0.355-2.116,0.117c-0.373-0.121-0.716-0.412-0.877-0.771
			c-0.169-0.359-0.215-0.725-0.181-1.105c0.012-0.133,0.128-0.229,0.26-0.217c0.128,0.01,0.225,0.121,0.218,0.248L199.884,27.236z"
			/>
	</g>
	<g>
		<path stroke="#FFFFFF" stroke-miterlimit="10" d="M54.177,24.652c-0.809,0.744-1.597,1.482-2.514,2.104
			c-0.46,0.303-0.923,0.631-1.56,0.748c-0.162,0.016-0.337,0.032-0.517-0.021c-0.095-0.021-0.164-0.06-0.272-0.109
			c-0.057-0.034-0.112-0.064-0.19-0.123c-0.274-0.197-0.466-0.453-0.605-0.741c-0.294-0.571-0.248-1.29,0.033-1.827
			c0.279-0.547,0.713-0.947,1.167-1.277c0.915-0.666,1.967-1.023,3.001-1.366c0.137-0.046,0.285,0.028,0.331,0.166
			c0.045,0.137-0.029,0.284-0.166,0.33c-0.006,0.002-0.016,0.005-0.022,0.006c-1.023,0.257-2.024,0.653-2.862,1.249
			c-0.403,0.309-0.762,0.688-0.929,1.129c-0.179,0.436-0.143,0.9,0.054,1.292c0.221,0.386,0.532,0.714,0.925,0.697
			c0.441-0.007,0.945-0.228,1.384-0.498c0.875-0.574,1.68-1.302,2.358-2.109l0.005-0.006c0.093-0.11,0.258-0.125,0.369-0.032
			c0.111,0.094,0.125,0.26,0.032,0.369C54.193,24.639,54.185,24.646,54.177,24.652z"/>
	</g>
	<g>
		<path fill="none" stroke="#FFFFFF" stroke-miterlimit="10" d="M183.24,38"/>
	</g>
</g>
</svg>
