<?xml version="1.0" encoding="utf-8"?>
<!-- Generator: Adobe Illustrator 15.1.0, SVG Export Plug-In . SVG Version: 6.00 Build 0)  -->
<!DOCTYPE svg PUBLIC "-//W3C//DTD SVG 1.1//EN" "http://www.w3.org/Graphics/SVG/1.1/DTD/svg11.dtd">
<svg version="1.1" id="Layer_1" xmlns="http://www.w3.org/2000/svg" xmlns:xlink="http://www.w3.org/1999/xlink" x="0px" y="0px"
	 width="240px" height="35px" viewBox="0 0 240 35" enable-background="new 0 0 240 35" xml:space="preserve">
<g>
	<path fill="none" d="M134.264-10.427"/>
</g>
<g>
	<g>
		<path d="M22.055,11.853c0.159-1.216-0.104-2.589-0.999-3.38c-0.89-0.802-2.221-1.04-3.507-1.024
			c-2.627,0.105-5.292,0.7-7.654,1.879c-2.37,1.169-4.406,2.978-5.842,5.197c-0.717,1.109-1.303,2.306-1.745,3.558
			c-0.462,1.258-0.716,2.527-0.742,3.847c-0.058,2.606,0.922,5.254,2.766,7.091c0.458,0.454,0.972,0.855,1.529,1.146
			c0.268,0.144,0.575,0.252,0.898,0.381c0.311,0.111,0.615,0.222,0.933,0.313c1.259,0.381,2.569,0.522,3.864,0.347
			c1.296-0.176,2.564-0.597,3.803-1.105c1.244-0.506,2.465-1.075,3.666-1.687c2.396-1.226,4.733-2.604,6.952-4.114l0.008-0.005
			c0.159-0.108,0.375-0.067,0.484,0.092c0.108,0.158,0.067,0.375-0.091,0.483c-2.258,1.547-4.599,2.934-7.025,4.186
			c-1.214,0.622-2.451,1.203-3.716,1.723c-1.264,0.522-2.588,0.972-3.983,1.165c-1.396,0.196-2.841,0.042-4.175-0.359
			c-0.334-0.094-0.668-0.214-0.996-0.331c-0.306-0.121-0.641-0.237-0.972-0.411c-0.646-0.334-1.214-0.778-1.718-1.275
			c-2.016-2-3.068-4.844-3.017-7.649c0.016-1.393,0.305-2.817,0.776-4.104c0.458-1.306,1.067-2.563,1.818-3.732
			c1.503-2.341,3.658-4.267,6.15-5.503c2.493-1.249,5.24-1.873,8.019-1.992c1.38-0.016,2.948,0.2,4.089,1.274
			c0.559,0.524,0.927,1.23,1.095,1.95c0.173,0.729,0.162,1.45,0.014,2.186c-0.038,0.188-0.221,0.31-0.409,0.272
			c-0.18-0.036-0.3-0.205-0.276-0.385L22.055,11.853z"/>
	</g>
	<g>
		<path d="M33.667,16.423c-0.769,1.239-1.493,2.522-2.139,3.831c-0.614,1.3-1.278,2.682-1.378,4.031
			c-0.004,0.334,0.045,0.612,0.249,0.758c0.229,0.186,0.412,0.212,0.654,0.063c0.244-0.153,0.46-0.431,0.692-0.722
			c0.092-0.146,0.338-0.345,0.425-0.421c0.139-0.127,0.289-0.255,0.444-0.373c0.623-0.476,1.38-0.794,2.163-0.888
			c0.785-0.097,1.572,0.02,2.309,0.239c0.733,0.234,1.426,0.566,2.072,0.963c0.313,0.2,0.641,0.431,0.918,0.636
			c0.243,0.17,0.578,0.271,0.917,0.352c1.379,0.288,2.869,0.266,4.269,0.023c1.4-0.223,2.654-0.995,3.981-1.65
			c0.659-0.337,1.32-0.675,2.019-0.968c0.352-0.144,0.708-0.281,1.102-0.373c0.196-0.046,0.405-0.078,0.638-0.072
			c0.225,0.007,0.525,0.068,0.747,0.307h0l0.011,0.013c0.04,0.043,0.063,0.095,0.071,0.149c0.142,1.037,0.537,2.195,1.356,2.821
			c0.885,0.547,2.069,0.558,3.101,0.424c1.05-0.278,2.208-0.469,3.302-0.676l3.332-0.591l-0.035,0.01
			c0.338-0.116,0.741-0.118,1.057,0.135c0.304,0.257,0.385,0.625,0.426,0.939c0.08,0.652-0.025,1.267-0.047,1.901v0.001
			l-0.618-0.289c0.766-0.921,1.593-1.758,2.547-2.475c0.479-0.35,0.99-0.674,1.563-0.878c0.56-0.207,1.237-0.278,1.796,0.021
			c0.051,0.026,0.071,0.09,0.044,0.141c-0.025,0.048-0.085,0.068-0.134,0.047c-0.506-0.225-1.083-0.125-1.585,0.099
			c-0.509,0.223-0.971,0.561-1.402,0.926c-0.856,0.74-1.614,1.624-2.27,2.536c-0.112,0.155-0.328,0.19-0.484,0.079
			c-0.112-0.081-0.162-0.217-0.139-0.345l0.004-0.023l0,0c0.244-0.543,0.377-1.138,0.341-1.698c-0.02-0.277-0.113-0.545-0.285-0.684
			c-0.162-0.143-0.447-0.148-0.672-0.069l-0.008,0.002l-0.027,0.008c-1.107,0.207-2.208,0.452-3.311,0.679
			c-1.113,0.241-2.181,0.444-3.301,0.767c-1.174,0.174-2.393,0.013-3.435-0.646c-0.497-0.378-0.841-0.875-1.109-1.394
			c-0.277-0.521-0.496-1.048-0.688-1.624l0.082,0.162l0,0c-0.051-0.088-0.396-0.111-0.715-0.026
			c-0.326,0.072-0.661,0.198-0.992,0.332c-0.663,0.274-1.318,0.604-1.975,0.936c-1.307,0.634-2.627,1.446-4.171,1.693
			c-1.502,0.248-3.018,0.266-4.528-0.048c-0.375-0.09-0.765-0.195-1.133-0.443c-0.316-0.231-0.593-0.425-0.901-0.622
			c-0.603-0.387-1.24-0.719-1.909-0.942c-1.331-0.473-2.843-0.314-3.933,0.559c-0.138,0.105-0.268,0.219-0.4,0.342
			c-0.187,0.17-0.24,0.191-0.357,0.355c-0.226,0.282-0.456,0.612-0.836,0.863c-0.19,0.121-0.447,0.22-0.717,0.19
			c-0.268-0.026-0.493-0.153-0.666-0.298c-0.411-0.314-0.488-0.861-0.476-1.244c0.029-0.817,0.273-1.538,0.524-2.249
			c0.261-0.706,0.564-1.389,0.887-2.061c0.651-1.341,1.368-2.636,2.145-3.909c0.1-0.165,0.314-0.216,0.479-0.116
			c0.164,0.1,0.216,0.314,0.116,0.479c0,0,0,0,0,0.001L33.667,16.423z"/>
	</g>
	<path fill="none" stroke="#000000" stroke-width="0.5225" stroke-miterlimit="10" d="M76.967,23.854c0,0-0.285,4.416,0.069,4.76"/>
	<path fill="none" stroke="#000000" stroke-width="0.3231" stroke-linecap="square" stroke-miterlimit="10" d="M77.221,21.354
		c0,0,0.965-0.188,1.045-0.015"/>
	<g>
		<path d="M85.626,21.688c-0.18-0.321-0.414-0.653-0.672-0.891c-0.284-0.248-0.501-0.324-0.691-0.171
			c-0.496,0.417-0.569,1.252-0.448,2.021c0.123,0.78,0.402,1.55,0.723,2.294c0.322,0.741,0.704,1.482,1.246,2.086l0,0l0.016,0.028
			c0.093,0.16,0.039,0.365-0.122,0.459c-0.022,0.013-0.046,0.022-0.069,0.03c-0.396,0.122-0.783,0.227-1.187,0.312
			c-0.202,0.042-0.406,0.079-0.619,0.101c-0.222,0.01-0.418,0.06-0.74-0.066c-0.133-0.053-0.198-0.203-0.146-0.336
			c0.051-0.13,0.198-0.195,0.329-0.147l0.041,0.015c0.054,0.021,0.271,0.012,0.439-0.023c0.181-0.032,0.366-0.079,0.55-0.132
			c0.368-0.106,0.742-0.237,1.097-0.378l-0.175,0.518l0,0c-0.333-0.796-0.733-1.511-1.089-2.273c-0.349-0.76-0.65-1.551-0.815-2.396
			c-0.082-0.423-0.12-0.865-0.062-1.32c0.031-0.23,0.084-0.451,0.195-0.684c0.058-0.129,0.117-0.221,0.172-0.301
			c0.08-0.121,0.16-0.205,0.267-0.299c0.206-0.185,0.566-0.291,0.853-0.208c0.288,0.069,0.497,0.22,0.677,0.372
			c0.355,0.317,0.607,0.665,0.84,1.056c0.098,0.165,0.044,0.379-0.121,0.478c-0.165,0.099-0.379,0.044-0.478-0.121
			c-0.001-0.002-0.003-0.005-0.004-0.007L85.626,21.688z"/>
	</g>
	<g>
		<path d="M119.111,7.958c0.565-0.574,1.103-1.227,1.479-1.919c0.185-0.344,0.328-0.713,0.335-1.041
			c-0.005-0.35-0.091-0.512-0.444-0.792c-1.2-1.049-2.908-1.287-4.506-0.967c-1.611,0.298-3.187,0.943-4.682,1.668
			c-1.477,0.75-2.928,1.653-3.953,2.916c-0.504,0.628-0.866,1.367-0.924,2.146c-0.066,0.78,0.196,1.562,0.623,2.242
			c0.427,0.691,0.995,1.276,1.618,1.846c0.612,0.564,1.254,1.111,1.908,1.64c1.305,1.064,2.668,2.068,3.958,3.198
			c1.257,1.126,2.561,2.438,3.016,4.24l-0.02-0.06c0.471,1.222,0.614,2.508,0.387,3.79c-0.232,1.275-0.91,2.465-1.873,3.331
			c-0.975,0.876-2.167,1.385-3.354,1.75c-1.194,0.364-2.419,0.572-3.647,0.69c-1.23,0.112-2.46,0.155-3.711,0.046
			c-0.322-0.039-0.612-0.057-0.999-0.188c-0.264-0.105-0.526-0.165-0.835-0.256c-0.594-0.172-1.21-0.379-1.766-0.707
			c-1.12-0.664-1.936-1.714-2.525-2.811c-0.567-1.126-0.876-2.345-1.077-3.569c-0.031-0.19,0.098-0.37,0.288-0.4
			c0.19-0.031,0.369,0.098,0.4,0.287c0.001,0.01,0.003,0.024,0.004,0.033c0.09,1.178,0.328,2.362,0.865,3.404
			c0.265,0.519,0.585,1.015,1.003,1.413c0.417,0.403,0.911,0.698,1.412,0.963c0.507,0.26,1.041,0.465,1.613,0.62
			c0.273,0.079,0.604,0.157,0.903,0.276c0.189,0.066,0.51,0.106,0.788,0.134c1.167,0.099,2.373,0.056,3.556-0.057
			c1.185-0.12,2.362-0.325,3.493-0.656c1.124-0.336,2.221-0.809,3.063-1.559c0.845-0.751,1.439-1.776,1.65-2.889
			c0.218-1.104,0.092-2.322-0.297-3.364l-0.016-0.042l-0.004-0.018c-0.36-1.541-1.535-2.808-2.754-3.918
			c-1.24-1.119-2.597-2.134-3.904-3.22c-0.656-0.542-1.298-1.098-1.924-1.686c-0.617-0.575-1.237-1.219-1.693-1.976
			c-0.46-0.75-0.763-1.651-0.697-2.57c0.063-0.919,0.481-1.768,1.027-2.456c1.113-1.384,2.612-2.313,4.127-3.1
			c1.538-0.753,3.115-1.435,4.833-1.773c0.855-0.163,1.755-0.223,2.644-0.062c0.889,0.158,1.735,0.55,2.439,1.132
			c0.146,0.125,0.37,0.295,0.513,0.552c0.142,0.249,0.192,0.536,0.184,0.794c-0.021,0.523-0.214,0.959-0.424,1.356
			c-0.439,0.792-0.995,1.455-1.615,2.083c-0.135,0.137-0.355,0.138-0.492,0.003c-0.137-0.135-0.138-0.355-0.003-0.492L119.111,7.958
			z"/>
	</g>
	<g>
		<path d="M121.809,23.527c-0.324,0.751-0.602,1.546-0.808,2.343c-0.203,0.794-0.347,1.623-0.246,2.391
			c0.053,0.378,0.18,0.729,0.4,0.965c0.222,0.236,0.495,0.307,0.857,0.265c0.717-0.109,1.451-0.544,2.116-1.006
			c0.671-0.473,1.306-1.013,1.909-1.583c0.301-0.285,0.595-0.579,0.873-0.883c0.14-0.151,0.274-0.306,0.396-0.459
			c0.074-0.093,0.091-0.116,0.176-0.244c0.034-0.026-0.033-0.009,0.171-0.166c0.052-0.024,0.052-0.041,0.164-0.058
			c0.097-0.013,0.214,0.018,0.287,0.065c0.083,0.059,0.126,0.122,0.165,0.196c0.052,0.131,0.057,0.201,0.067,0.267
			c0.075,0.918,0.05,1.715,0.223,2.489c0.076,0.366,0.232,0.741,0.397,0.823c0.089,0.108,0.49-0.015,0.887-0.144
			c3.135-1.117,6.204-2.592,9.176-4.155c1.483-0.795,2.942-1.635,4.339-2.561c1.372-0.934,2.774-1.93,3.734-3.208l0,0
			c0.113-0.155,0.331-0.189,0.486-0.076c0.146,0.106,0.185,0.305,0.097,0.457l-0.004,0.006c-0.955,1.628-1.833,3.341-2.455,5.114
			c-0.299,0.887-0.536,1.806-0.54,2.703c-0.017,0.919,0.335,1.674,1.076,2.161c0.099,0.065,0.127,0.199,0.062,0.299
			c-0.05,0.075-0.139,0.109-0.223,0.093l-0.007-0.001c-0.523-0.105-1.001-0.504-1.253-0.999c-0.255-0.496-0.334-1.035-0.341-1.548
			c-0.003-1.031,0.247-2.002,0.55-2.935c0.625-1.867,1.507-3.601,2.541-5.259l0.579,0.387l0,0c-1.08,1.444-2.499,2.436-3.899,3.408
			c-1.42,0.952-2.892,1.81-4.386,2.62c-3.005,1.601-6.045,3.086-9.278,4.26c-0.212,0.069-0.406,0.134-0.657,0.191
			c-0.215,0.059-0.619,0.071-0.9-0.114c-0.569-0.388-0.664-0.915-0.778-1.349c-0.188-0.886-0.151-1.796-0.208-2.562
			c-0.003-0.039-0.017-0.074-0.001-0.043c0.023,0.055,0.053,0.093,0.117,0.135c0.06,0.046,0.164,0.074,0.248,0.059
			c0.099-0.023,0.09-0.024,0.13-0.043c0.157-0.13,0.065-0.063,0.067-0.048c-0.03,0.049-0.137,0.198-0.198,0.268
			c-0.144,0.176-0.289,0.338-0.438,0.496c-0.297,0.317-0.604,0.618-0.92,0.912c-0.632,0.584-1.295,1.137-2.012,1.631
			c-0.724,0.479-1.481,0.958-2.451,1.104c-0.246,0.021-0.508,0.022-0.772-0.06c-0.133-0.044-0.313-0.128-0.375-0.18l-0.066-0.045
			l-0.017-0.011c-0.058-0.042-0.026-0.021-0.044-0.035l-0.036-0.033l-0.141-0.139c-0.352-0.4-0.488-0.894-0.543-1.349
			c-0.119-1.837,0.441-3.483,1.068-5.095c0.07-0.179,0.271-0.268,0.451-0.198c0.18,0.07,0.269,0.272,0.198,0.451
			c-0.001,0.004-0.003,0.007-0.004,0.011L121.809,23.527z"/>
	</g>
	<g>
		<path d="M142.535,24.825c4.354,0.035,8.721-0.102,13.054-0.503c2.164-0.208,4.325-0.484,6.439-0.941
			c1.055-0.232,2.101-0.509,3.092-0.896c0.968-0.388,1.978-0.893,2.482-1.688l-0.043,0.109l0,0c0.057-0.313,0.006-0.697-0.163-0.848
			c-0.151-0.17-0.5-0.203-0.858-0.141c-0.765,0.153-1.505,0.425-2.208,0.8c-1.404,0.736-2.593,1.863-3.439,3.205
			c-0.416,0.682-0.837,1.391-0.821,2.085c-0.018,0.698,0.473,1.276,1.139,1.637c0.663,0.367,1.444,0.571,2.227,0.696
			c0.39,0.06,0.801,0.104,1.182,0.118c0.346-0.002,0.758-0.073,1.147-0.149c3.167-0.701,6.29-1.801,9.364-2.926
			c1.536-0.575,3.062-1.181,4.559-1.841c0.748-0.331,1.49-0.676,2.21-1.05c0.697-0.373,1.473-0.781,1.939-1.274l0.015-0.016
			c0.132-0.14,0.352-0.146,0.491-0.014c0.129,0.122,0.145,0.317,0.043,0.457l-0.001,0.001c-0.794,1.09-1.524,2.252-2.133,3.455
			c-0.304,0.602-0.582,1.217-0.787,1.844c-0.202,0.617-0.345,1.287-0.224,1.83l-0.519-0.215l0.001-0.001
			c0.858-0.524,1.701-1.125,2.453-1.797c0.394-0.328,0.662-0.72,1.16-1.082c0.452-0.34,1.073-0.549,1.669-0.451
			c0.596,0.085,1.098,0.402,1.509,0.758c0.398,0.353,0.769,0.671,1.185,0.973c0.817,0.599,1.712,1.096,2.67,1.406
			c1.916,0.65,4.036,0.474,5.894-0.321c0.936-0.389,1.816-0.907,2.646-1.5c0.832-0.564,1.581-1.325,2.546-1.827
			c0.475-0.251,0.978-0.474,1.558-0.53c0.147-0.006,0.297-0.011,0.455,0.026c0.161,0.021,0.354,0.146,0.454,0.267
			c0.212,0.247,0.312,0.508,0.405,0.764c0.177,0.513,0.28,1.024,0.402,1.524c0.061,0.249,0.122,0.497,0.204,0.723
			c0.04,0.109,0.091,0.22,0.141,0.28c0.012,0.033,0.154,0.112,0.25,0.16c1.829,0.81,4.006,0.563,5.914-0.056
			c3.887-1.321,7.129-4.073,9.977-7.009l-0.024,0.029c1.038-1.476,1.996-3.031,2.813-4.643c0.406-0.807,0.779-1.629,1.082-2.472
			c0.302-0.84,0.54-1.706,0.604-2.566l0.001-0.006c0.015-0.192,0.182-0.336,0.373-0.321c0.192,0.015,0.336,0.182,0.321,0.374
			c0,0.001,0,0.004,0,0.005c-0.088,0.963-0.356,1.87-0.683,2.741c-0.328,0.872-0.723,1.71-1.149,2.528
			c-0.863,1.632-1.833,3.188-2.907,4.691l-0.025,0.03c-1.455,1.491-3.005,2.899-4.697,4.13c-1.69,1.227-3.53,2.289-5.54,2.936
			c-1.989,0.62-4.234,0.883-6.248-0.008c-0.13-0.073-0.237-0.098-0.393-0.266c-0.114-0.142-0.166-0.274-0.218-0.405
			c-0.099-0.262-0.163-0.517-0.229-0.77c-0.128-0.506-0.237-1.01-0.405-1.477c-0.083-0.229-0.187-0.456-0.317-0.602
			c-0.093-0.131-0.284-0.145-0.521-0.131c-0.456,0.048-0.924,0.251-1.356,0.49c-0.882,0.468-1.601,1.216-2.471,1.831
			c-0.855,0.613-1.777,1.144-2.759,1.548c-1.95,0.823-4.225,1.01-6.254,0.309c-1.012-0.34-1.959-0.845-2.82-1.459
			c-0.892-0.582-1.56-1.502-2.463-1.594c-0.438-0.063-0.875,0.084-1.245,0.366c-0.35,0.243-0.696,0.71-1.092,1.056
			c-0.78,0.723-1.61,1.36-2.505,1.94l-0.003,0.002l-0.012,0.007c-0.159,0.097-0.367,0.047-0.465-0.113
			c-0.021-0.034-0.034-0.071-0.042-0.108c-0.166-0.814,0.035-1.536,0.25-2.211c0.226-0.676,0.52-1.313,0.838-1.935
			c0.648-1.237,1.377-2.408,2.168-3.559l0.002-0.002l0.549,0.428c-0.678,0.702-1.415,1.036-2.153,1.447
			c-0.74,0.385-1.492,0.734-2.249,1.068c-1.515,0.668-3.051,1.277-4.597,1.856c-3.104,1.135-6.209,2.233-9.473,2.957
			c-0.418,0.078-0.819,0.158-1.299,0.162c-0.441-0.016-0.85-0.063-1.273-0.126c-0.837-0.137-1.678-0.347-2.46-0.777
			c-0.386-0.218-0.764-0.496-1.047-0.885c-0.29-0.379-0.455-0.881-0.447-1.356c-0.001-0.482,0.126-0.925,0.312-1.342
			c0.183-0.39,0.386-0.761,0.617-1.119c0.908-1.438,2.188-2.654,3.703-3.448c0.747-0.399,1.569-0.703,2.419-0.87
			c0.429-0.066,1.016-0.102,1.468,0.337c0.419,0.457,0.422,0.996,0.351,1.476l-0.001,0.005l-0.002,0.012
			c-0.008,0.036-0.022,0.069-0.041,0.098c-0.713,1.063-1.814,1.531-2.837,1.948c-1.047,0.398-2.121,0.671-3.199,0.898
			c-2.159,0.447-4.34,0.705-6.521,0.896c-4.365,0.364-8.739,0.464-13.115,0.39c-0.128-0.003-0.23-0.108-0.229-0.236
			C142.3,24.926,142.408,24.824,142.535,24.825z"/>
	</g>
	<path fill="none" stroke="#000000" stroke-width="0.6966" stroke-linecap="round" stroke-miterlimit="10" d="M227.039,11.475
		c0,0-4.985,12.613-1.934,18.955"/>
	<g>
		<path d="M239.353,9.945c-0.877,1.536-1.641,3.166-2.31,4.816c-0.672,1.652-1.257,3.343-1.681,5.074
			c-0.408,1.73-0.701,3.502-0.666,5.276c0.032,1.765,0.32,3.546,1.079,5.12c0.084,0.174,0.011,0.382-0.162,0.466
			c-0.174,0.083-0.382,0.011-0.466-0.163c-0.003-0.007-0.007-0.015-0.009-0.021c-0.694-1.727-0.992-3.572-0.981-5.397
			c0.014-1.826,0.237-3.642,0.647-5.411c0.403-1.771,0.947-3.507,1.611-5.194c0.676-1.685,1.436-3.324,2.335-4.917
			c0.095-0.167,0.308-0.227,0.475-0.132c0.168,0.094,0.227,0.307,0.132,0.475v0.001L239.353,9.945z"/>
	</g>
	<g>
		<path d="M199.884,27.236c-0.027,0.579,0.246,1.154,0.762,1.299c0.527,0.163,1.161,0.03,1.771-0.154
			c0.603-0.182,1.18-0.451,1.657-0.82c0.47-0.361,0.86-0.883,0.965-1.414l0.009-0.043c0.023-0.121,0.142-0.2,0.263-0.176
			c0.108,0.021,0.184,0.119,0.18,0.227c-0.029,0.798-0.489,1.426-1.038,1.878c-0.556,0.456-1.214,0.721-1.871,0.916
			c-0.64,0.176-1.364,0.356-2.116,0.118c-0.373-0.121-0.716-0.413-0.877-0.772c-0.169-0.359-0.215-0.724-0.181-1.106
			c0.012-0.132,0.128-0.229,0.26-0.217c0.128,0.011,0.224,0.122,0.218,0.249L199.884,27.236z"/>
	</g>
	<g>
		<path d="M54.177,24.653c-0.809,0.743-1.597,1.482-2.514,2.103c-0.46,0.303-0.923,0.631-1.56,0.748
			c-0.162,0.016-0.337,0.032-0.517-0.022c-0.095-0.021-0.164-0.059-0.272-0.109c-0.057-0.034-0.112-0.064-0.19-0.123
			c-0.274-0.197-0.466-0.453-0.605-0.741c-0.294-0.572-0.248-1.29,0.033-1.827c0.279-0.547,0.713-0.947,1.167-1.277
			c0.915-0.667,1.967-1.024,3.001-1.367c0.137-0.046,0.285,0.028,0.331,0.166c0.045,0.137-0.029,0.284-0.166,0.33
			c-0.006,0.002-0.016,0.005-0.022,0.006c-1.023,0.257-2.024,0.654-2.862,1.249c-0.403,0.309-0.762,0.688-0.929,1.129
			c-0.179,0.436-0.143,0.901,0.054,1.292c0.221,0.386,0.532,0.714,0.925,0.697c0.441-0.007,0.945-0.228,1.384-0.498
			c0.875-0.574,1.68-1.302,2.358-2.109l0.005-0.006c0.093-0.11,0.258-0.125,0.369-0.032s0.125,0.259,0.032,0.369
			C54.193,24.638,54.185,24.646,54.177,24.653z"/>
	</g>
	<g>
		<path fill="none" d="M183.24,38"/>
	</g>
</g>
</svg>
